# xmcd
#
# Track frame offsets: 
#        183
#        14513
#        64925
#        99338
#        124900
#        160313
#        204258
#        247365
#        261813
#        294880
#
# Disc length: 4086 seconds
#
# Revision: 3
# Processed by: cddbd v1.5.2PL0 Copyright (c) Steve Scherf et al.
# Submitted via: ExactAudioCopy v0.99pb5
#
DISCID=8f0ff40a
DTITLE=Pablo Casals, Mieczyslaw Horzsowski - Beethoven - Cello Sonatas
DTITLE=Nos. 1, 2, 3
DYEAR=1930
DGENRE=Chamber
TTITLE0=01. Sonata for Piano and Violoncello op.5, No.1 in F major - 1
TTITLE0=Adagio sostenuto
TTITLE1=02. Sonata for Piano and Violoncello op.5, No.1 in F major - 2
TTITLE1=Allegro
TTITLE2=03. Sonata for Piano and Violoncello op.5, No.1 in F major - 3
TTITLE2=Allegro vivace
TTITLE3=04. Sonata for Piano and Violoncello op.5, No.2 in G minor - 1
TTITLE3=Adagio sostenuto e espressivo
TTITLE4=05. Sonata for Piano and Violoncello op.5, No.2 in G minor - 2
TTITLE4=Allegro molto pi¨´ tosto presto
TTITLE5=06. Sonata for Piano and Violoncello op.5, No.2 in G minor - 3
TTITLE5=Rondo. Allegro
TTITLE6=07. Sonata for Cello and Piano No.3 in A, Op.69 - 1. Allegro m
TTITLE6=a non tanto
TTITLE7=08. Sonata for Cello and Piano No.3 in A, Op.69 - 2. Scherzo (
TTITLE7=Allegro molto)
TTITLE8=09. Sonata for Cello and Piano No.3 in A, Op.69 - 3. Adagio ca
TTITLE8=ntabile - Allegro vivace
TTITLE9=10. Menuet in G major WoO 10 No. 2
EXTD=YEAR: 1930
EXTT0=
EXTT1=
EXTT2=
EXTT3=
EXTT4=
EXTT5=
EXTT6=
EXTT7=
EXTT8=
EXTT9=
PLAYORDER=
